<svg height="512" viewBox="0 0 512 512" width="512" xmlns="http://www.w3.org/2000/svg" xmlns:xlink="http://www.w3.org/1999/xlink"><linearGradient id="New_Gradient_Swatch_copy_8" gradientUnits="userSpaceOnUse" x1="256" x2="256" y1="8" y2="168"><stop offset="0" stop-color="#f5b563"/><stop offset=".031" stop-color="#f6ba66"/><stop offset=".198" stop-color="#f8ce72"/><stop offset=".387" stop-color="#fadc7a"/><stop offset=".617" stop-color="#fbe47f"/><stop offset="1" stop-color="#fbe781"/></linearGradient><linearGradient id="New_Gradient_Swatch_copy" gradientUnits="userSpaceOnUse" x1="136" x2="136" y1="124" y2="216"><stop offset="0" stop-color="#e94867"/><stop offset="1" stop-color="#ef7268"/></linearGradient><linearGradient id="New_Gradient_Swatch_copy-2" x1="376" x2="376" xlink:href="#New_Gradient_Swatch_copy"/><linearGradient id="New_Gradient_Swatch" gradientUnits="userSpaceOnUse" x1="256" x2="256" y1="248" y2="504"><stop offset="0" stop-color="#f07c68"/><stop offset="1" stop-color="#f3b775"/></linearGradient><g id="_25_Outcome" data-name="25 Outcome"><g id="Filled"><circle cx="256" cy="88" fill="url(#New_Gradient_Swatch_copy_8)" r="80"/><path d="m120 139.74 15.61-15.74 16.39 16.26v75.74h-32z" fill="url(#New_Gradient_Swatch_copy)"/><path d="m360 139.74 15.61-15.74 16.39 16.26v75.74h-32z" fill="url(#New_Gradient_Swatch_copy-2)"/><path d="m344 288s24-16 24-40h-224c0 24 24 40 24 40-52 64-48 184-48 184s-16 4-16 16 16 16 16 16h272s16-4 16-16-16-16-16-16 4-120-48-184z" fill="url(#New_Gradient_Swatch)"/><g fill="#fff"><path d="m264 80h-16a8 8 0 0 1 0-16h32v-16h-16v-16h-16v16a24 24 0 0 0 0 48h16a8 8 0 0 1 0 16h-32v16h16v16h16v-16a24 24 0 0 0 0-48z"/><path d="m304 432h88v16h-88z"/><path d="m352 400h36v16h-36z"/><path d="m320 464h72v16h-72z"/><path d="m320 400h16v16h-16z"/></g><path d="m256 176a88 88 0 1 0 -88-88 88.1 88.1 0 0 0 88 88zm0-160a72 72 0 1 1 -72 72 72.081 72.081 0 0 1 72-72z"/><path d="m112 224h48v-64.54l18.366 18.22 11.268-11.36-54.066-53.633-53.248 53.679 11.36 11.268 18.32-18.469zm23.66-88.687 8.34 8.274v64.413h-16v-64.964z"/><path d="m375.568 112.687-53.248 53.679 11.36 11.268 18.32-18.469v64.835h48v-64.54l18.366 18.22 11.268-11.36zm8.432 95.313h-16v-64.964l7.66-7.723 8.34 8.274z"/><path d="m400.087 466.431c.1-24.481-2.445-118.288-44.984-177.091 26.506-23.876 19.822-45.794 20.9-49.34h-240.003c.905 2.984-5.361 25.687 20.9 49.34-42.539 58.8-45.083 152.61-44.984 177.091-24.5 11.3-19.453 38.931 6.147 45.33l.956.239h273.965l.956-.239c25.66-6.412 30.597-34.05 6.147-45.33zm-246.943-210.431h205.712c-9.267 32.556-69.064 52-102.856 52-.115 0-.226 0-.341 0a24.034 24.034 0 0 0 -23.659-20h-16a23.938 23.938 0 0 0 -17.7 7.81c-18.227-7.855-39.723-20.723-45.156-39.81zm54.856 56a8.009 8.009 0 0 1 8-8h16a8 8 0 0 1 0 16h-16a8.009 8.009 0 0 1 -8-8zm182.81 184h-269.61c-12.239-4.154-12.284-11.83-.006-16h54.806v-16h-48.052c.2-26.131 3.859-112.485 41.8-165.123a161.172 161.172 0 0 0 22.3 11.663 23.917 23.917 0 0 0 7.952 19.329v38.131h16v-32h16v64h16v-70.131a24.147 24.147 0 0 0 4.8-5.916c31.236.647 63.267-9.77 89.3-25.279 33.15 45.82 43.286 123.3 41.736 179.457l6.181 1.619c12.099 3.203 14.165 11.706.793 16.25z"/></g></g></svg>